<svg width="20.428711" height="16.228516" viewBox="0 0 20.4287 16.2285" fill="none" xmlns="http://www.w3.org/2000/svg" xmlns:xlink="http://www.w3.org/1999/xlink">
	<desc>
			Created with Pixso.
	</desc>
	<defs/>
	<path id=" ↳Color" d="M7.01 12.01L2.81 7.81L1.41 9.21L7.01 14.81L19.01 2.81L17.61 1.41L7.01 12.01Z" fill="#8AC44B" fill-opacity="1.000000" fill-rule="evenodd"/>
	<path id=" ↳Color" d="M7.01 10.59L2.81 6.39L2.1 7.1L0 9.21L7.01 16.22L20.42 2.81L17.61 0L7.01 10.59ZM6.3 11.3L3.52 8.52L2.81 7.81L2.12 8.5L2.1 8.52L1.41 9.21L2.12 9.92L6.3 14.1L7.01 14.81L7.72 14.1L18.3 3.52L19.01 2.81L18.32 2.12L18.3 2.1L17.61 1.41L16.9 2.12L7.72 11.3L7.01 12.01L6.3 11.3Z" fill="#8AC44B" fill-opacity="1.000000" fill-rule="evenodd"/>
</svg>
