<svg width="24.000000" height="24.000000" viewBox="0 0 24 24" fill="none" xmlns="http://www.w3.org/2000/svg" xmlns:xlink="http://www.w3.org/1999/xlink">
	<desc>
			Created with Pixso.
	</desc>
	<defs>
		<clipPath id="clip2224_749">
			<rect id="Systems / download-cloud-2-fill" width="24.000000" height="24.000000" fill="white" fill-opacity="0"/>
		</clipPath>
	</defs>
	<rect id="Systems / download-cloud-2-fill" width="24.000000" height="24.000000" fill="#FFFFFF" fill-opacity="0"/>
	<g clip-path="url(#clip2224_749)">
		<path id="Vector" d="M13 13L13 18.58L14.82 16.75L16.24 18.17L12 22.41L7.75 18.17L9.17 16.75L11 18.58L11 13L13 13ZM12 2C13.71 2 15.37 2.63 16.65 3.77C17.93 4.91 18.75 6.48 18.95 8.19C20.19 8.53 21.28 9.29 22.02 10.35C22.75 11.41 23.09 12.69 22.98 13.98C22.87 15.26 22.31 16.47 21.39 17.38C20.48 18.29 19.28 18.86 18 18.97L18 17C18 15.42 17.38 13.91 16.28 12.79C15.18 11.66 13.68 11.02 12.11 10.99C10.54 10.96 9.01 11.55 7.87 12.63C6.73 13.71 6.06 15.2 6 16.77L6 17L6 18.97C4.71 18.86 3.51 18.29 2.6 17.38C1.68 16.47 1.12 15.26 1.01 13.98C0.9 12.7 1.24 11.41 1.97 10.35C2.71 9.29 3.8 8.53 5.04 8.19C5.24 6.48 6.06 4.91 7.34 3.77C8.62 2.63 10.28 2 12 2Z" fill="#333333" fill-opacity="1.000000" fill-rule="nonzero"/>
	</g>
</svg>
