<svg width="38.000000" height="38.000000" viewBox="0 0 38 38" fill="none" xmlns="http://www.w3.org/2000/svg" xmlns:xlink="http://www.w3.org/1999/xlink">
	<desc>
			Created with Pixso.
	</desc>
	<defs>
		<clipPath id="clip2142_33">
			<rect id="Business / global-fill" width="38.000000" height="38.000000" fill="white" fill-opacity="0"/>
		</clipPath>
	</defs>
	<rect id="Business / global-fill" width="38.000000" height="38.000000" fill="#FFFFFF" fill-opacity="0"/>
	<g clip-path="url(#clip2142_33)">
		<path id="Vector" d="M3.24 20.58L11.91 20.58C12.18 25.59 13.78 30.44 16.54 34.64C13.08 34.09 9.9 32.42 7.5 29.88C5.09 27.33 3.59 24.06 3.24 20.58ZM3.24 17.41C3.59 13.93 5.09 10.66 7.5 8.11C9.9 5.57 13.08 3.89 16.54 3.35C13.78 7.54 12.18 12.4 11.91 17.41L3.24 17.41ZM34.75 17.41L26.08 17.41C25.81 12.4 24.21 7.54 21.45 3.35C24.91 3.89 28.09 5.57 30.5 8.11C32.9 10.66 34.4 13.93 34.75 17.41ZM34.75 20.58C34.4 24.06 32.9 27.33 30.5 29.88C28.09 32.42 24.91 34.09 21.45 34.64C24.21 30.44 25.81 25.59 26.08 20.58L34.75 20.58L34.75 20.58ZM15.08 20.58L22.91 20.58C22.65 24.85 21.3 28.99 19 32.6C16.69 28.99 15.34 24.85 15.08 20.58ZM15.08 17.41C15.34 13.14 16.69 9 19 5.39C21.3 9 22.65 13.14 22.91 17.41L15.08 17.41Z" fill="#FECC01" fill-opacity="1.000000" fill-rule="nonzero"/>
	</g>
</svg>
