<svg width="38.000000" height="38.000000" viewBox="0 0 38 38" fill="none" xmlns="http://www.w3.org/2000/svg" xmlns:xlink="http://www.w3.org/1999/xlink">
	<desc>
			Created with Pixso.
	</desc>
	<defs>
		<clipPath id="clip2153_317">
			<rect id="Systems / question-fill" width="38.000000" height="38.000000" fill="white" fill-opacity="0"/>
		</clipPath>
	</defs>
	<rect id="Systems / question-fill" width="38.000000" height="38.000000" fill="#FFFFFF" fill-opacity="0"/>
	<g clip-path="url(#clip2153_317)">
		<path id="Vector" d="M19 34.83C10.25 34.83 3.16 27.74 3.16 19C3.16 10.25 10.25 3.16 19 3.16C27.74 3.16 34.83 10.25 34.83 19C34.83 27.74 27.74 34.83 19 34.83ZM17.41 23.75L17.41 26.91L20.58 26.91L20.58 23.75L17.41 23.75ZM20.58 21.14C21.85 20.76 22.94 19.93 23.66 18.81C24.37 17.69 24.66 16.34 24.47 15.03C24.27 13.72 23.62 12.51 22.61 11.64C21.61 10.77 20.32 10.29 19 10.29C17.71 10.29 16.47 10.73 15.48 11.54C14.49 12.35 13.81 13.48 13.56 14.74L16.67 15.36C16.75 14.92 16.97 14.51 17.28 14.19C17.59 13.86 17.98 13.63 18.42 13.52C18.86 13.41 19.31 13.43 19.74 13.57C20.17 13.71 20.55 13.97 20.83 14.32C21.12 14.67 21.3 15.09 21.35 15.54C21.41 15.98 21.33 16.44 21.14 16.84C20.95 17.25 20.65 17.59 20.27 17.83C19.89 18.08 19.45 18.2 19 18.2C18.58 18.2 18.17 18.37 17.88 18.67C17.58 18.96 17.41 19.37 17.41 19.79L17.41 22.16L20.58 22.16L20.58 21.14Z" fill="#FFFFFF" fill-opacity="1.000000" fill-rule="nonzero"/>
	</g>
</svg>
